<svg width="183" height="293" xmlns="http://www.w3.org/2000/svg" xmlns:xlink="http://www.w3.org/1999/xlink" xml:space="preserve" overflow="hidden"><g transform="translate(-1296 -786)"><path d="M1452.5 922.5 1452.5 958.528" stroke="#000000" stroke-width="4.58333" stroke-miterlimit="8" fill="none" fill-rule="evenodd"/><path d="M1359.5 1043.5C1359.5 1025.27 1374.27 1010.5 1392.5 1010.5 1410.73 1010.5 1425.5 1025.27 1425.5 1043.5 1425.5 1061.73 1410.73 1076.5 1392.5 1076.5 1374.27 1076.5 1359.5 1061.73 1359.5 1043.5Z" stroke="#000000" stroke-width="4.58333" stroke-miterlimit="8" fill="none" fill-rule="evenodd"/><path d="M1390.5 858.5 1390.5 1010.31" stroke="#000000" stroke-width="4.58333" stroke-miterlimit="8" fill="none" fill-rule="evenodd"/><path d="M1356.5 858.5 1389.5 792.5 1422.5 858.5Z" stroke="#000000" stroke-width="4.58333" stroke-miterlimit="8" fill="none" fill-rule="evenodd"/><path d="M0 0 60.1409 25.1297" stroke="#000000" stroke-width="4.58333" stroke-miterlimit="8" fill="none" fill-rule="evenodd" transform="matrix(1 0 0 -1 1392.5 981.63)"/><path d="M1323.5 980.5 1389.69 1001.92" stroke="#000000" stroke-width="4.58333" stroke-miterlimit="8" fill="none" fill-rule="evenodd"/><path d="M1323.5 947.5 1323.5 981.584" stroke="#000000" stroke-width="4.58333" stroke-miterlimit="8" fill="none" fill-rule="evenodd"/><rect x="1298.5" y="897.5" width="49.0001" height="49.9998" stroke="#000000" stroke-width="4.58333" stroke-miterlimit="8" fill="none"/><path d="M1427.5 896.5C1427.5 882.693 1438.47 871.5 1452 871.5 1465.53 871.5 1476.5 882.693 1476.5 896.5 1476.5 910.307 1465.53 921.5 1452 921.5 1438.47 921.5 1427.5 910.307 1427.5 896.5Z" stroke="#000000" stroke-width="4.58333" stroke-miterlimit="8" fill="none" fill-rule="evenodd"/></g></svg>